<svg xmlns="http://www.w3.org/2000/svg" xmlns:xlink="http://www.w3.org/1999/xlink" width="21" height="21" viewBox="0 0 21 21"><defs><path id="zo3ea" d="M509 457c.03.3-.06.57-.3.8l-2.67 2.66a1.95 1.95 0 0 1-1.43.54 9.27 9.27 0 0 1-3.32-.77c-.83-.35-1.76-.86-2.8-1.54a20.92 20.92 0 0 1-3.35-2.82 22.05 22.05 0 0 1-2.33-2.66 18.93 18.93 0 0 1-1.49-2.34 12.63 12.63 0 0 1-1.23-3.47 4.99 4.99 0 0 1-.06-1.4 1.96 1.96 0 0 1 .53-1.04l2.67-2.68c.19-.19.4-.28.65-.28.17 0 .32.05.46.15.13.1.25.23.34.37l2.15 4.09c.12.21.16.45.1.7-.05.26-.17.47-.34.65l-.98.98a.34.34 0 0 0-.08.13.5.5 0 0 0-.03.16c.06.28.18.6.37.96.16.32.4.72.74 1.18.34.46.81 1 1.43 1.6.6.62 1.14 1.1 1.6 1.44.48.34.87.6 1.18.75.32.16.56.26.73.3l.25.05.13-.03.13-.08 1.15-1.16c.24-.22.52-.32.84-.32.23 0 .41.04.55.12h.02l3.88 2.29c.28.17.45.4.5.66z"/></defs><g><g transform="translate(-489 -441)"><use fill="#fff" fill-opacity="0" stroke="#000" stroke-miterlimit="50" xlink:href="#zo3ea"/></g></g></svg>