<svg xmlns="http://www.w3.org/2000/svg" xmlns:xlink="http://www.w3.org/1999/xlink" width="23" height="20" viewBox="0 0 23 20"><defs><path id="8wkta" d="M764.75 737.26a1.81 1.81 0 0 1-1.56 2.74H743.8a1.81 1.81 0 0 1-1.56-2.74l9.69-16.37a1.81 1.81 0 0 1 3.12 0z"/><path id="8wktc" d="M753 725.5a.5.5 0 0 1 1 0v7a.5.5 0 0 1-1 0zm0 10a.5.5 0 0 1 1 0v1a.5.5 0 0 1-1 0z"/><clipPath id="8wktb"><use fill="#fff" xlink:href="#8wkta"/></clipPath></defs><g><g transform="translate(-742 -720)"><g><use fill="#fff" fill-opacity="0" stroke="#ff3a3a" stroke-miterlimit="50" stroke-width="2" clip-path="url(&quot;#8wktb&quot;)" xlink:href="#8wkta"/></g><g><use fill="#ff3a3a" xlink:href="#8wktc"/></g></g></g></svg>